 <svg version="1.0" class="logo" baseProfile="tiny" id="Layer_1"  xmlns="http://www.w3.org/2000/svg"
                viewBox="0 0 3264.000000 3264.000000"
                 preserveAspectRatio="xMidYMid meet">
                
                <g transform="translate(0.000000,3264.000000) scale(0.100000,-0.100000)"
                fill="#000000" stroke="none">
                <path d="M16795 31709 c-159 -7 -209 -13 -315 -41 -218 -56 -392 -139 -565
                -269 -136 -102 -285 -254 -344 -352 -13 -21 -28 -43 -34 -50 -13 -13 -33 -47
                -69 -118 -13 -24 -26 -45 -30 -47 -5 -2 -8 -10 -8 -18 0 -11 -31 -85 -61 -146
                -5 -10 -9 -26 -9 -36 0 -10 -4 -22 -8 -27 -5 -6 -17 -48 -26 -95 -10 -47 -23
                -105 -29 -130 -15 -59 -15 -440 0 -500 6 -25 19 -83 29 -130 9 -47 21 -89 26
                -94 4 -6 8 -20 8 -32 0 -13 5 -26 10 -29 6 -3 10 -12 10 -20 0 -29 106 -232
                173 -334 68 -100 271 -324 330 -361 13 -8 62 -41 109 -72 235 -158 511 -249
                804 -264 277 -14 538 41 786 168 157 79 271 162 398 288 311 308 470 689 470
                1130 0 264 -49 479 -161 706 -228 465 -695 800 -1204 863 -124 16 -140 16
                -290 10z m330 -537 c199 -49 364 -141 505 -283 70 -70 160 -187 160 -207 0 -6
                4 -12 8 -14 9 -4 82 -152 82 -168 0 -5 4 -18 9 -28 19 -37 31 -92 46 -214 15
                -116 15 -137 1 -250 -16 -117 -28 -172 -47 -210 -5 -10 -9 -24 -9 -32 0 -14
                -73 -161 -105 -211 -68 -106 -194 -238 -280 -294 -22 -14 -42 -28 -45 -31 -11
                -13 -98 -59 -150 -80 -30 -12 -64 -26 -75 -30 -108 -45 -304 -67 -451 -50
                -106 11 -223 37 -239 51 -5 5 -15 9 -23 9 -21 0 -194 86 -218 108 -11 11 -25
                21 -31 23 -33 12 -152 122 -209 194 -21 28 -41 52 -44 55 -44 44 -135 238
                -166 356 -24 87 -27 119 -28 259 0 156 5 201 41 320 93 315 363 594 674 699
                49 17 166 43 219 50 79 10 297 -3 375 -22z"/>
                <path d="M16820 30873 c-251 -25 -483 -191 -593 -423 -94 -199 -91 -453 9
                -655 161 -329 554 -493 904 -378 52 17 151 66 195 96 43 30 147 135 184 187
                37 52 81 145 100 210 7 25 17 59 22 76 5 17 9 82 9 144 0 62 -4 127 -9 144 -5
                17 -15 51 -22 76 -15 56 -70 168 -108 224 -92 131 -249 235 -429 282 -54 14
                -199 24 -262 17z"/>
                <path d="M23145 30840 c-22 -10 -89 -42 -150 -70 -60 -29 -204 -96 -320 -150
                -115 -54 -259 -121 -320 -150 -60 -29 -137 -65 -170 -80 -33 -15 -100 -47
                -150 -70 -49 -23 -117 -55 -150 -70 -33 -15 -100 -47 -150 -70 -49 -23 -100
                -46 -113 -51 -18 -7 -46 2 -135 45 -141 69 -288 117 -459 152 -112 23 -158 27
                -298 27 -301 0 -528 -66 -782 -230 l-98 -62 -137 50 c-76 27 -181 65 -233 84
                -52 18 -151 54 -220 79 -69 25 -190 68 -270 96 -80 28 -173 62 -208 75 -45 17
                -64 20 -67 12 -2 -7 -6 -82 -10 -167 -22 -531 -175 -1000 -418 -1283 -27 -32
                -46 -61 -43 -65 8 -7 45 -20 496 -175 168 -58 359 -123 424 -146 125 -43 146
                -54 146 -78 0 -8 17 -68 39 -132 135 -406 421 -739 786 -916 86 -42 265 -106
                332 -120 36 -7 56 -31 95 -115 15 -30 59 -122 98 -205 40 -82 92 -190 115
                -240 24 -49 69 -144 100 -210 32 -66 76 -160 100 -210 23 -49 77 -162 120
                -250 43 -88 97 -202 121 -252 24 -51 47 -93 53 -93 28 0 299 119 1031 453 410
                187 412 188 427 176 40 -34 329 -390 851 -1047 154 -194 347 -448 405 -533
                l52 -76 200 -66 c110 -36 396 -129 635 -207 554 -180 1988 -658 2490 -830 527
                -181 653 -225 1266 -444 748 -266 1435 -541 1607 -642 31 -18 57 -31 57 -27 0
                11 -82 137 -253 388 -189 276 -182 258 -147 377 111 370 393 587 768 588 124
                1 317 24 365 44 40 16 54 36 40 59 -4 8 -179 166 -388 352 -209 185 -396 352
                -415 369 -19 17 -73 65 -120 106 -47 41 -107 96 -135 121 -27 26 -68 62 -90
                80 -22 19 -42 36 -45 40 -3 3 -90 81 -195 174 -104 92 -226 200 -270 240 -44
                39 -228 203 -410 365 -181 161 -366 325 -409 364 -44 39 -192 171 -330 294
                -274 243 -235 217 -561 372 -55 26 -185 88 -290 137 -255 121 -1106 525 -1225
                581 -52 24 -180 85 -285 134 -238 114 -437 208 -650 308 -44 21 -129 61 -190
                90 -60 29 -146 69 -190 90 -304 142 -511 244 -531 261 -9 7 -30 44 -48 83 -19
                39 -67 143 -109 231 -41 88 -128 273 -192 410 -65 138 -134 286 -155 330 -57
                120 -128 272 -160 340 -15 33 -49 105 -75 160 -98 207 -152 322 -186 395 -69
                152 -204 414 -214 417 -5 1 -28 -6 -50 -17z m-2199 -1025 c325 -66 577 -251
                713 -524 78 -155 106 -273 106 -446 0 -136 -14 -222 -54 -330 -186 -500 -716
                -767 -1215 -613 -86 27 -224 97 -293 149 -225 169 -371 422 -399 694 -16 144
                5 300 57 445 13 36 26 67 29 70 3 3 16 27 30 55 56 112 184 255 297 333 98 68
                232 128 343 153 30 6 69 15 85 19 62 14 223 11 301 -5z m2178 -354 c51 -68
                404 -598 425 -639 25 -47 14 -44 -227 70 -57 26 -105 48 -107 48 -2 0 -43 18
                -92 41 -48 23 -113 53 -143 66 -188 87 -234 108 -312 145 -49 23 -88 45 -88
                49 0 3 46 32 103 64 128 72 270 171 322 225 l40 41 15 -22 c8 -13 37 -52 64
                -88z m-711 -773 c51 -46 115 -103 142 -127 28 -23 82 -73 120 -110 39 -36 95
                -88 125 -115 30 -27 82 -75 115 -105 33 -31 119 -110 190 -176 72 -66 162
                -150 200 -186 39 -36 104 -97 145 -135 41 -38 128 -118 193 -178 65 -60 126
                -117 136 -125 10 -9 74 -68 142 -131 68 -63 187 -173 264 -245 128 -118 169
                -156 261 -241 389 -360 614 -570 614 -575 0 -3 -28 -42 -62 -87 -35 -44 -115
                -147 -178 -229 -63 -81 -117 -150 -120 -153 -3 -3 -27 -34 -54 -70 -256 -335
                -384 -492 -400 -487 -5 2 -21 30 -35 63 -64 147 -254 414 -476 669 -268 308
                -817 861 -1240 1250 -166 152 -307 281 -365 331 -25 21 -67 60 -95 85 -27 26
                -68 62 -90 80 -82 70 -80 67 -53 97 115 125 178 217 258 375 40 79 98 244 118
                332 11 45 42 247 42 267 0 16 12 7 103 -74z m-351 -1611 c176 -110 281 -180
                290 -192 4 -5 4 -13 0 -16 -7 -8 -276 -95 -307 -101 -19 -3 -32 25 -64 137 -6
                22 -24 87 -41 144 -16 57 -30 105 -30 107 0 12 32 -5 152 -79z m3263 -972 c16
                -7 57 -23 90 -35 33 -13 78 -31 100 -40 22 -10 168 -71 325 -135 157 -64 299
                -123 315 -131 17 -7 54 -23 84 -34 30 -12 73 -29 95 -39 23 -11 131 -56 241
                -101 110 -45 219 -91 242 -101 23 -10 44 -19 47 -19 3 0 31 -12 63 -26 31 -15
                86 -37 122 -51 36 -13 83 -33 106 -43 22 -10 133 -56 245 -103 414 -171 506
                -209 535 -222 17 -7 163 -68 325 -135 162 -67 387 -160 500 -207 113 -47 229
                -96 258 -109 29 -13 55 -24 58 -24 5 0 210 -84 279 -115 27 -12 436 -181 545
                -226 257 -105 355 -149 358 -163 2 -11 -4 -16 -18 -16 -36 0 -132 -39 -190
                -76 -118 -79 -269 -269 -382 -484 -54 -103 -45 -102 -242 -27 -77 30 -186 71
                -241 92 -55 20 -152 56 -215 80 -63 24 -160 60 -215 80 -55 20 -109 41 -120
                45 -11 5 -47 18 -80 30 -124 45 -304 113 -735 275 -63 23 -160 59 -215 80 -55
                20 -163 61 -240 90 -77 29 -185 69 -240 90 -55 20 -152 56 -215 80 -123 46
                -251 93 -407 151 -54 20 -107 40 -118 44 -11 5 -76 30 -145 55 -324 120 -536
                200 -907 339 -65 25 -198 74 -296 111 -99 36 -234 88 -300 114 -67 27 -135 51
                -150 55 -15 4 -30 13 -33 20 -3 9 37 66 95 138 56 68 125 152 154 188 29 36
                140 172 246 302 214 263 187 243 276 203z"/>
                <path d="M20626 29469 c-165 -46 -291 -138 -381 -279 -56 -87 -82 -161 -95
                -269 -26 -214 43 -407 201 -557 75 -70 146 -113 244 -146 60 -20 89 -23 210
                -22 125 0 147 3 207 26 123 46 231 125 307 223 20 27 72 128 92 180 34 91 43
                263 19 365 -44 190 -196 372 -375 447 -130 55 -301 67 -429 32z"/>
                <path d="M14875 30176 c-11 -6 -168 -87 -350 -180 -181 -93 -402 -206 -490
                -251 -88 -45 -286 -147 -440 -225 -473 -241 -761 -388 -970 -495 -110 -56
                -330 -169 -490 -250 -159 -81 -362 -185 -450 -230 -88 -45 -306 -157 -485
                -248 -644 -329 -735 -376 -737 -384 -1 -4 23 -23 55 -41 31 -18 101 -65 154
                -105 316 -236 576 -535 729 -840 108 -214 166 -391 204 -623 20 -121 23 -453
                6 -567 -7 -43 -10 -81 -7 -84 3 -3 59 30 124 73 66 44 146 95 178 116 33 20
                138 90 234 155 96 65 414 281 705 478 292 197 611 414 710 481 99 68 263 179
                365 248 268 181 541 365 735 497 196 133 732 496 1010 684 225 152 234 158
                235 166 0 4 -44 42 -97 85 -92 74 -297 271 -374 359 -294 340 -476 743 -506
                1118 -6 79 -11 85 -48 63z"/>
                <path d="M9020 27865 c-539 -77 -1005 -337 -1351 -755 -142 -171 -280 -417
                -349 -620 -12 -36 -25 -74 -30 -85 -5 -11 -11 -31 -14 -45 -2 -14 -13 -63 -24
                -110 -63 -281 -73 -540 -31 -785 32 -180 43 -225 90 -360 17 -49 34 -100 36
                -113 3 -12 9 -25 14 -28 5 -3 9 -14 9 -24 0 -10 3 -20 8 -22 4 -1 25 -39 47
                -83 51 -105 116 -213 167 -282 71 -97 213 -256 283 -318 38 -33 73 -64 79 -70
                69 -64 256 -188 381 -252 223 -115 467 -190 724 -222 121 -16 408 -13 531 4
                373 53 722 202 1014 433 91 71 277 257 348 347 148 189 284 447 356 675 105
                337 122 724 47 1088 -15 69 -84 292 -105 337 -5 11 -25 56 -45 100 -181 402
                -524 760 -927 968 -198 102 -334 150 -578 203 -154 34 -507 44 -680 19z m595
                -916 c115 -24 151 -37 290 -100 217 -99 464 -349 570 -576 51 -109 56 -124
                104 -308 17 -67 23 -273 11 -370 -19 -151 -22 -165 -31 -171 -5 -3 -9 -15 -9
                -27 -1 -57 -96 -264 -174 -377 -111 -162 -304 -327 -483 -414 -119 -58 -228
                -91 -370 -111 -122 -18 -200 -19 -308 -4 -297 40 -530 154 -738 362 -106 105
                -169 190 -236 319 -41 80 -91 213 -91 244 0 11 -4 24 -8 30 -17 18 -34 176
                -33 296 1 189 38 354 118 526 29 63 137 224 191 286 97 111 255 232 390 300
                108 54 308 109 442 120 88 7 266 -5 365 -25z"/>
                <path d="M9230 26643 c-305 -47 -533 -196 -684 -447 -157 -260 -169 -594 -33
                -876 162 -338 551 -552 922 -509 56 7 146 27 203 45 273 88 503 327 581 604 5
                19 16 55 23 80 17 60 17 298 -1 375 -51 225 -158 396 -332 537 -111 89 -277
                159 -443 188 -57 10 -184 11 -236 3z"/>
                <path d="M11600 25298 c-64 -238 -174 -507 -267 -656 -18 -29 -33 -55 -33 -58
                0 -11 -111 -167 -188 -264 -161 -202 -440 -444 -672 -582 -222 -132 -474 -242
                -685 -299 -44 -11 -84 -25 -89 -29 -4 -5 34 -57 86 -117 137 -157 353 -408
                937 -1088 95 -110 194 -225 220 -255 44 -51 117 -136 526 -610 83 -96 225
                -260 314 -365 90 -104 169 -190 175 -190 6 0 12 11 14 25 7 53 90 365 127 475
                52 156 181 439 235 515 11 16 20 31 20 34 0 13 167 246 233 326 356 425 879
                758 1452 924 107 30 144 40 259 65 16 4 31 11 32 16 2 6 -90 87 -204 181 -199
                165 -363 301 -1072 890 -179 148 -473 393 -655 544 -181 150 -368 305 -415
                345 -47 39 -103 84 -125 101 -22 16 -74 57 -116 91 -42 35 -79 63 -82 63 -3 0
                -15 -37 -27 -82z"/>
                <path d="M14535 22792 c-149 -9 -327 -35 -425 -62 -105 -28 -253 -75 -316
                -101 -292 -115 -565 -296 -784 -518 -138 -139 -226 -246 -306 -371 -16 -25
                -31 -47 -34 -50 -10 -10 -52 -88 -111 -210 -68 -139 -70 -144 -94 -215 -9 -27
                -21 -58 -26 -67 -5 -10 -9 -25 -9 -33 0 -8 -4 -23 -10 -33 -17 -31 -69 -281
                -87 -417 -4 -33 -8 -150 -8 -260 0 -240 4 -275 56 -520 12 -55 24 -112 27
                -128 2 -15 8 -30 13 -33 5 -3 9 -13 9 -22 0 -14 25 -89 59 -177 31 -78 170
                -348 184 -353 4 -2 7 -8 7 -14 0 -8 85 -134 100 -148 3 -3 19 -23 35 -45 47
                -63 64 -83 160 -183 360 -377 809 -610 1340 -697 200 -33 581 -30 760 6 398
                80 714 220 1020 452 98 76 286 256 370 357 133 159 266 381 368 610 45 101
                105 310 136 470 37 193 48 549 22 710 -34 213 -59 324 -107 468 -286 854
                -1052 1471 -1953 1573 -92 11 -311 17 -396 11z m330 -918 c136 -24 211 -45
                330 -94 176 -73 310 -164 455 -310 107 -106 210 -234 210 -259 0 -6 3 -11 8
                -11 4 0 12 -10 17 -23 6 -12 23 -44 37 -72 75 -145 116 -269 143 -440 19 -117
                18 -336 -1 -450 -8 -49 -18 -105 -21 -123 -3 -18 -9 -35 -14 -38 -5 -3 -9 -13
                -9 -22 0 -26 -56 -167 -102 -257 -168 -329 -483 -600 -823 -707 -198 -63 -263
                -73 -460 -73 -124 1 -194 6 -260 19 -300 61 -551 194 -759 402 -140 140 -263
                324 -327 492 -5 12 -14 32 -19 45 -12 27 -49 163 -63 237 -14 71 -14 426 0
                505 12 70 49 211 62 240 5 11 17 38 26 60 42 99 63 137 134 245 160 245 405
                444 679 551 12 5 32 13 45 18 55 22 87 31 167 46 47 9 99 20 115 25 54 15 334
                11 430 -6z"/>
                <path d="M14495 21399 c-101 -14 -233 -57 -325 -106 -180 -96 -334 -256 -422
                -439 -76 -159 -93 -236 -92 -439 0 -173 2 -186 50 -334 74 -226 286 -459 511
                -562 144 -66 268 -93 428 -93 277 1 506 96 700 291 138 139 217 291 274 526
                14 60 14 296 0 351 -6 22 -15 59 -21 81 -126 485 -598 795 -1103 724z"/>
                <path d="M12251 18908 c-49 -107 -87 -189 -136 -293 -26 -55 -60 -127 -75
                -160 -15 -33 -49 -105 -75 -160 -55 -116 -74 -157 -245 -525 -70 -151 -149
                -320 -175 -375 -100 -213 -115 -248 -109 -254 3 -3 1448 -7 3211 -9 l3204 -2
                -6 22 c-4 13 -110 226 -235 473 -125 248 -302 598 -394 778 -91 180 -177 347
                -190 370 -14 23 -43 76 -65 117 -22 41 -44 76 -48 77 -5 2 -50 -43 -100 -99
                -50 -57 -145 -155 -210 -218 -661 -645 -1339 -939 -2070 -898 -729 41 -1471
                430 -2154 1130 -48 48 -90 88 -93 88 -4 0 -20 -28 -35 -62z"/>
                <path d="M10840 16722 l-85 -3 -167 -212 c-92 -117 -178 -225 -190 -241 -13
                -16 -50 -63 -84 -105 -33 -42 -132 -166 -219 -276 -273 -345 -306 -384 -323
                -389 -9 -3 -62 -10 -117 -15 -289 -29 -639 -116 -875 -216 -413 -175 -659
                -436 -709 -755 -55 -339 87 -672 366 -862 29 -20 59 -38 65 -40 27 -9 -11 -29
                -144 -73 -265 -88 -403 -150 -443 -197 -30 -36 -30 -38 -4 -72 38 -48 184
                -111 407 -175 77 -23 147 -41 156 -41 8 0 30 -19 49 -42 72 -89 126 -203 167
                -353 38 -136 28 -440 -15 -474 -5 -5 -219 -93 -475 -196 -256 -102 -475 -193
                -488 -201 -58 -38 4 -63 196 -79 85 -7 159 -18 164 -23 6 -6 8 -18 5 -26 -7
                -16 -77 -56 -101 -56 -13 0 -38 -45 -96 -175 -78 -172 -134 -364 -179 -611
                -19 -104 -14 -416 8 -520 43 -198 111 -340 231 -481 60 -70 195 -185 273 -232
                48 -29 89 -38 822 -186 94 -19 370 -75 615 -125 245 -50 567 -115 715 -145
                149 -30 425 -86 615 -125 190 -39 368 -75 395 -80 28 -5 228 -45 445 -90 217
                -44 517 -105 665 -135 149 -30 439 -89 645 -131 372 -75 376 -76 455 -65 197
                26 455 63 510 71 54 9 390 57 555 80 36 5 317 46 625 90 308 45 587 85 620 90
                72 10 922 133 1870 270 380 54 1019 147 1420 205 402 58 980 141 1285 185 692
                100 630 89 630 111 0 29 -97 125 -185 184 -147 98 -337 181 -670 290 -168 56
                -156 44 -185 190 -80 395 -17 726 177 936 96 103 181 152 372 216 293 96 413
                183 343 246 -40 36 -246 104 -362 119 -21 2 -26 9 -28 40 -3 35 -1 38 70 85
                94 62 271 236 343 337 269 380 283 846 39 1346 -23 47 -56 109 -73 139 -40 67
                -35 71 79 71 87 0 293 20 412 39 90 15 190 47 220 71 46 35 41 95 -11 138 -27
                22 -172 89 -252 115 -86 29 -341 92 -534 133 -71 15 -155 33 -185 39 l-54 11
                -15 65 c-9 40 -15 123 -15 224 0 173 15 260 71 397 88 218 281 398 545 508 93
                38 128 64 128 94 0 29 -22 49 -90 80 -160 72 -590 144 -1170 195 -321 29 -450
                41 -487 47 -32 5 -70 35 -594 475 -96 80 -218 180 -272 222 l-98 77 -3847 -2
                c-2116 -1 -3885 -4 -3932 -6z m9578 -1499 c-153 -221 -186 -499 -108 -918 5
                -27 9 -55 9 -61 1 -13 -27 -19 -154 -34 -165 -18 -312 -39 -665 -95 -138 -22
                -200 -31 -285 -44 -38 -6 -140 -22 -225 -36 -85 -14 -180 -30 -210 -35 -30 -5
                -152 -25 -270 -45 -118 -20 -240 -40 -270 -45 -83 -13 -431 -73 -735 -126
                -148 -25 -292 -50 -320 -54 -42 -7 -364 -63 -515 -90 -25 -5 -139 -25 -255
                -45 -115 -20 -232 -40 -260 -45 -27 -5 -115 -20 -195 -34 -80 -14 -197 -34
                -260 -46 -63 -11 -178 -32 -255 -45 -117 -20 -304 -54 -590 -105 -27 -5 -90
                -16 -140 -25 -49 -9 -139 -25 -200 -36 -60 -11 -135 -25 -165 -30 -60 -11
                -239 -38 -309 -46 l-44 -5 7 38 c3 22 11 109 16 194 6 85 13 170 16 188 3 19
                9 98 14 175 10 149 25 339 36 443 l6 62 47 5 c25 3 136 19 246 37 110 17 238
                38 285 45 47 8 144 23 215 35 72 11 144 23 160 25 17 2 75 11 130 20 55 9 128
                20 163 25 34 6 90 15 125 20 34 6 152 24 262 41 110 17 223 35 250 39 28 5
                156 25 285 45 129 21 258 41 285 45 142 23 528 83 580 90 33 4 71 10 85 14 23
                6 383 62 460 72 19 3 71 11 115 19 44 7 114 18 155 24 41 6 158 25 260 41 102
                16 304 48 450 71 146 22 306 47 355 55 50 8 117 18 150 23 54 8 288 46 450 72
                33 5 87 14 120 19 59 8 343 52 460 71 33 6 91 14 129 19 38 6 71 12 74 15 3 3
                18 5 34 5 l29 0 -33 -47z m-11168 -265 c118 -11 253 -23 300 -28 96 -9 531
                -55 660 -71 120 -14 237 -27 333 -38 89 -11 349 -44 465 -61 39 -5 105 -15
                145 -20 39 -6 167 -24 282 -40 288 -41 279 -40 380 -56 50 -7 133 -21 185 -29
                52 -8 120 -19 150 -24 30 -6 123 -22 205 -36 280 -48 262 -45 495 -90 74 -14
                155 -30 180 -34 25 -5 101 -21 170 -35 112 -24 153 -33 295 -66 200 -46 306
                -74 310 -81 6 -8 -5 -234 -30 -629 -21 -343 -27 -420 -34 -424 -6 -4 -90 5
                -321 34 -41 5 -185 23 -320 39 -308 38 -397 50 -485 62 -38 5 -164 21 -280 34
                -115 14 -245 29 -287 35 -43 5 -113 15 -155 20 -43 6 -170 21 -283 35 -113 14
                -240 30 -282 35 -178 23 -243 31 -443 55 -115 14 -244 30 -285 35 -41 5 -136
                17 -210 25 -74 8 -166 20 -205 25 -118 17 -340 45 -595 75 -69 8 -197 24 -285
                35 -88 11 -198 25 -245 31 -188 22 -261 37 -304 65 -47 31 -144 127 -165 164
                -35 60 -58 107 -65 130 -4 14 -14 50 -23 80 -20 73 -24 377 -5 435 53 161 159
                273 308 324 67 23 83 23 444 -11z m11176 -1339 c124 -40 231 -134 288 -254 58
                -120 70 -217 56 -451 -14 -237 -35 -328 -108 -469 -63 -120 -179 -219 -282
                -239 -19 -4 -71 -13 -115 -21 -176 -31 -327 -57 -465 -81 -80 -14 -197 -34
                -260 -45 -63 -11 -191 -33 -285 -49 -93 -16 -209 -36 -257 -44 -211 -38 -330
                -59 -753 -131 -232 -40 -318 -55 -370 -65 -27 -6 -106 -19 -175 -31 -69 -11
                -147 -24 -175 -29 -27 -5 -144 -25 -260 -45 -115 -20 -234 -40 -262 -45 -152
                -28 -254 -46 -658 -115 -115 -20 -235 -41 -265 -46 -30 -6 -80 -14 -110 -19
                -30 -5 -93 -15 -140 -24 -47 -8 -137 -24 -200 -35 -63 -11 -154 -27 -202 -36
                -89 -15 -185 -30 -293 -45 -33 -4 -72 -11 -87 -15 l-28 -7 0 635 0 635 23 5
                c12 2 101 21 197 41 96 20 229 47 295 62 66 14 138 29 160 33 22 5 119 25 215
                46 96 20 272 57 390 81 118 25 233 49 255 54 191 40 510 108 645 136 91 19
                183 38 205 43 45 10 59 13 360 76 121 26 328 69 460 97 132 27 258 53 280 58
                22 4 85 17 140 29 103 22 219 47 290 61 55 11 381 80 430 91 22 5 60 13 85 18
                71 14 301 62 345 72 22 5 63 13 90 19 28 5 122 25 210 44 177 38 227 39 331 5z
                m-10606 -559 c47 -6 124 -10 172 -10 48 0 131 -4 185 -10 54 -5 197 -17 318
                -25 121 -9 267 -20 325 -25 266 -25 331 -31 410 -40 47 -6 155 -17 240 -25 85
                -9 216 -23 290 -31 74 -8 171 -19 215 -24 79 -9 237 -26 305 -34 19 -2 91 -11
                160 -20 69 -8 222 -27 340 -41 118 -14 240 -30 270 -35 30 -5 111 -17 180 -25
                69 -9 161 -20 205 -26 44 -5 87 -12 95 -14 8 -3 56 -9 105 -14 50 -6 135 -17
                190 -25 55 -8 186 -26 290 -40 105 -14 206 -29 225 -32 19 -3 60 -10 90 -14
                195 -27 296 -45 302 -54 9 -13 11 -1220 2 -1228 -3 -3 -19 1 -36 9 -33 17
                -176 59 -248 73 -25 5 -65 13 -90 19 -58 13 -299 60 -370 72 -30 5 -77 13
                -105 18 -43 8 -247 41 -437 72 -32 5 -84 13 -115 18 -60 10 -367 57 -463 71
                -139 20 -438 63 -560 80 -332 46 -696 96 -800 110 -41 5 -124 17 -185 25 -134
                18 -324 43 -425 55 -298 37 -407 51 -616 79 -151 20 -345 45 -484 61 -41 5
                -111 14 -155 20 -44 5 -170 21 -280 35 -226 27 -418 55 -423 60 -2 2 2 51 9
                109 10 84 10 132 0 248 -12 143 -54 421 -71 468 -5 14 -11 42 -15 62 l-6 37
                73 4 c120 7 796 -3 888 -13z m-1090 -1662 c85 -11 184 -23 220 -28 89 -11 498
                -67 590 -80 41 -6 102 -15 135 -20 33 -5 78 -11 100 -15 22 -3 114 -17 205
                -30 91 -14 197 -30 235 -35 71 -10 107 -15 295 -45 126 -20 192 -30 285 -44
                140 -22 344 -55 430 -71 33 -6 85 -15 115 -20 55 -9 178 -30 280 -49 30 -5 96
                -17 145 -26 166 -29 360 -66 395 -75 19 -5 58 -14 85 -19 172 -35 305 -63 335
                -71 19 -5 85 -21 145 -35 303 -73 587 -176 638 -233 13 -14 16 -72 21 -402 7
                -437 22 -765 41 -890 7 -47 10 -88 6 -92 -3 -4 -58 6 -121 21 -104 25 -372 88
                -475 111 -22 5 -69 16 -105 24 -36 8 -108 24 -160 35 -52 11 -192 40 -310 65
                -118 25 -240 51 -270 57 -30 6 -73 15 -95 19 -22 5 -123 25 -225 44 -102 20
                -234 45 -295 56 -60 12 -134 26 -162 31 -29 5 -79 14 -110 19 -52 10 -261 45
                -413 70 -124 20 -365 57 -590 90 -86 12 -554 68 -665 79 -55 6 -147 15 -205
                21 -99 9 -299 21 -634 36 -164 7 -186 13 -265 72 -130 98 -199 245 -220 467
                -13 139 -12 438 1 496 29 126 43 170 76 239 41 83 121 175 197 227 57 39 53
                39 345 1z m11180 -115 c0 -5 -20 -48 -44 -96 -25 -48 -52 -114 -61 -145 -9
                -31 -21 -68 -25 -82 -27 -81 -35 -179 -34 -415 0 -194 4 -271 18 -345 25 -136
                29 -170 23 -170 -3 0 -86 -13 -184 -30 -158 -26 -502 -83 -948 -155 -82 -13
                -211 -34 -285 -45 -74 -12 -157 -25 -185 -31 -44 -8 -241 -40 -525 -85 -52 -8
                -122 -19 -155 -25 -33 -5 -159 -25 -280 -44 -121 -19 -245 -40 -275 -45 -30
                -6 -127 -22 -215 -35 -88 -14 -185 -29 -215 -34 -61 -11 -135 -23 -285 -46
                -55 -8 -125 -20 -155 -25 -30 -5 -111 -19 -180 -30 -111 -17 -462 -73 -625
                -100 -33 -5 -132 -21 -220 -35 -299 -48 -590 -95 -645 -105 -54 -10 -221 -36
                -415 -65 -181 -28 -295 -41 -304 -35 -7 5 -15 100 -26 325 -3 50 -9 140 -15
                200 -5 61 -14 191 -20 290 -6 99 -17 277 -25 395 -9 139 -11 218 -5 224 16 16
                186 55 425 97 33 6 80 15 105 20 43 9 393 63 510 79 466 64 585 80 645 86 28
                3 73 9 100 14 28 5 77 12 110 15 33 3 92 10 130 15 39 5 108 14 155 20 176 20
                336 40 360 45 14 2 68 9 120 14 52 6 133 15 180 20 370 42 552 63 590 67 25 2
                79 8 120 14 90 11 206 24 400 45 80 8 208 22 285 31 229 25 284 31 650 70 193
                20 375 38 405 40 30 2 89 9 130 14 41 6 122 15 180 20 58 6 195 20 305 31 110
                12 234 23 275 26 41 3 77 7 79 9 8 7 51 4 51 -3z"/>
                <path d="M18355 8479 c-60 -5 -171 -13 -245 -19 -74 -5 -241 -17 -370 -25
                -129 -8 -296 -19 -370 -25 -74 -5 -211 -14 -305 -20 -93 -6 -226 -15 -295 -20
                -69 -6 -233 -17 -365 -25 -302 -19 -723 -47 -1705 -115 -299 -20 -452 -30
                -680 -45 -129 -8 -293 -19 -365 -25 -71 -5 -211 -14 -310 -20 -99 -6 -231 -15
                -292 -21 -157 -16 -424 -16 -578 -1 -71 7 -182 17 -245 22 -63 6 -167 15 -230
                20 -63 5 -203 17 -310 25 -107 8 -240 20 -295 25 -55 5 -163 14 -240 20 -77 6
                -183 15 -235 20 -52 5 -185 16 -295 25 -110 8 -245 19 -300 25 -55 5 -163 14
                -240 20 -77 6 -160 13 -185 16 -25 2 -128 11 -230 19 -102 9 -241 20 -310 25
                -69 6 -183 15 -253 20 -71 5 -144 12 -162 16 -18 3 -35 2 -38 -3 -4 -5 42 -46
                101 -91 162 -124 279 -214 472 -361 96 -74 222 -171 280 -215 58 -44 107 -82
                110 -85 3 -3 48 -39 101 -79 142 -107 134 -93 121 -214 -7 -57 -19 -184 -27
                -283 -9 -99 -20 -227 -25 -285 -13 -139 -26 -294 -45 -520 -8 -102 -20 -228
                -25 -280 -5 -52 -14 -153 -20 -225 -6 -71 -15 -175 -20 -230 -6 -55 -17 -181
                -25 -280 -8 -99 -19 -223 -25 -275 -5 -52 -14 -153 -20 -225 -6 -71 -15 -175
                -20 -230 -6 -55 -17 -183 -25 -285 -8 -102 -19 -225 -25 -275 -5 -49 -15 -156
                -22 -237 l-12 -148 -343 -256 c-189 -141 -346 -261 -349 -266 -4 -7 11 -8 42
                -4 27 3 114 10 194 16 161 12 417 35 555 50 50 5 146 14 215 20 69 6 163 15
                210 20 47 5 162 17 255 25 94 9 211 20 260 25 50 5 140 14 200 20 61 6 151 15
                200 20 50 6 164 17 255 25 91 9 255 24 365 35 110 11 274 26 365 35 91 8 206
                19 255 25 50 5 144 14 210 20 66 6 158 15 205 20 47 5 162 16 255 25 94 9 176
                19 184 21 18 6 7 13 -404 274 -324 205 -373 236 -480 306 -62 40 -66 43 -133
                84 -43 26 -46 32 -72 160 -6 30 -24 120 -41 200 -16 80 -43 215 -60 300 -16
                85 -34 171 -39 190 -5 19 -13 60 -19 90 -6 30 -22 109 -35 175 -13 66 -27 131
                -29 145 -3 14 -21 104 -41 200 -20 96 -41 198 -46 225 -6 28 -14 70 -20 95 -6
                25 -15 70 -20 100 -5 30 -17 87 -25 125 -9 39 -20 93 -25 120 -5 28 -16 84
                -25 125 -9 41 -21 98 -26 125 -5 28 -13 70 -19 95 -6 25 -14 65 -19 90 -5 25
                -18 92 -30 150 -11 58 -26 130 -32 160 -6 30 -14 71 -19 90 -8 31 -33 152 -62
                305 -5 28 -14 70 -19 95 -5 25 -12 64 -15 87 -6 40 -5 42 22 48 16 4 36 9 44
                12 16 5 235 69 285 83 17 4 127 36 245 70 118 34 229 66 245 70 17 5 102 30
                190 56 88 26 176 47 194 48 31 1 36 -2 42 -29 26 -114 62 -279 71 -325 5 -30
                14 -77 20 -105 5 -27 13 -68 18 -90 4 -22 24 -121 45 -220 20 -99 39 -191 42
                -205 2 -14 16 -79 29 -145 13 -66 29 -145 35 -175 6 -30 15 -73 19 -95 9 -40
                34 -168 43 -215 9 -49 87 -436 96 -475 5 -22 14 -65 20 -95 6 -30 21 -102 32
                -160 21 -104 27 -133 48 -240 19 -102 71 -355 80 -395 6 -22 18 -80 27 -128
                19 -97 34 -121 34 -56 0 24 5 79 10 123 6 45 22 178 35 296 14 118 30 244 35
                280 5 36 14 110 20 165 6 55 15 138 20 185 5 47 17 153 25 235 9 83 20 184 25
                225 5 41 14 125 20 185 6 61 15 144 20 185 5 41 16 145 25 230 8 85 19 191 25
                235 5 44 14 125 20 180 27 262 41 360 50 369 7 7 10 4 10 -9 0 -18 29 -122 66
                -240 9 -27 20 -63 24 -80 4 -16 25 -84 45 -150 20 -66 41 -135 46 -152 51
                -181 94 -335 115 -413 8 -30 21 -77 29 -105 20 -68 101 -354 110 -385 6 -25
                10 -37 40 -145 10 -33 21 -76 27 -95 5 -19 13 -48 18 -65 4 -16 20 -73 35
                -125 25 -89 34 -122 55 -195 4 -16 20 -73 35 -125 14 -52 30 -110 36 -127 10
                -38 17 -62 54 -193 14 -52 30 -108 35 -125 5 -16 13 -46 19 -65 5 -19 17 -62
                26 -95 10 -33 21 -75 26 -92 10 -36 18 -66 44 -158 10 -33 21 -75 26 -92 5
                -18 14 -49 19 -68 6 -19 14 -50 19 -67 5 -18 16 -58 25 -88 18 -63 54 -191 66
                -235 5 -16 16 -57 25 -90 10 -33 21 -76 27 -95 5 -19 14 -51 19 -70 33 -114
                35 -129 17 -135 -24 -7 -243 -75 -273 -84 -81 -25 -276 -86 -325 -101 -54 -18
                -308 -97 -342 -106 -32 -9 -19 -24 20 -24 21 0 139 -7 263 -15 123 -8 310 -19
                414 -25 105 -6 269 -15 365 -20 96 -6 261 -15 365 -20 105 -6 271 -14 370 -20
                99 -5 317 -16 485 -25 639 -32 697 -36 758 -40 34 -2 62 -1 62 3 0 7 -98 56
                -375 188 -205 97 -320 152 -509 243 -93 44 -170 81 -173 81 -9 0 -370 183
                -380 193 -8 9 3 68 48 247 141 553 394 1556 405 1605 4 17 31 127 61 245 98
                389 170 675 176 700 3 14 22 88 42 165 39 147 50 191 61 240 4 17 25 100 46
                185 22 85 51 200 64 255 14 55 29 114 33 130 7 27 8 25 14 -25 4 -30 12 -104
                17 -165 5 -60 14 -153 20 -205 21 -188 34 -320 60 -635 6 -66 17 -196 25 -290
                15 -166 26 -285 45 -510 36 -434 52 -585 59 -585 3 0 21 31 38 68 36 74 135
                260 163 307 10 17 82 156 160 310 78 154 184 361 235 460 242 471 312 609 435
                850 261 512 352 690 359 697 7 8 131 -34 358 -120 119 -45 121 -47 128 -82 8
                -45 20 -125 40 -275 9 -66 20 -147 25 -180 21 -142 58 -411 70 -505 9 -69 15
                -109 40 -275 4 -33 16 -112 24 -175 9 -63 21 -149 27 -190 6 -41 15 -105 20
                -142 5 -38 13 -98 18 -135 6 -38 17 -122 26 -188 9 -66 20 -147 25 -180 5 -33
                14 -96 20 -140 6 -44 15 -107 20 -140 26 -178 42 -297 51 -360 5 -38 13 -99
                18 -135 5 -36 14 -99 20 -140 6 -41 18 -124 26 -185 37 -263 54 -396 55 -421
                0 -24 3 -23 -130 -70 -52 -18 -153 -54 -225 -79 -71 -26 -155 -55 -185 -65
                -30 -10 -134 -46 -230 -80 -96 -34 -200 -70 -230 -80 -30 -10 -120 -41 -200
                -70 -80 -28 -165 -59 -190 -67 -102 -35 -89 -38 235 -53 138 -6 331 -15 430
                -20 99 -5 295 -14 435 -20 140 -6 338 -15 440 -20 102 -5 354 -17 560 -25 642
                -26 1297 -55 1490 -65 200 -11 732 -33 1190 -50 157 -6 350 -15 430 -20 189
                -13 397 -16 406 -7 7 7 15 52 34 197 5 41 15 109 20 150 6 41 18 127 26 190 8
                63 20 144 25 180 5 36 14 99 19 140 5 41 14 107 20 145 19 137 41 301 51 375
                5 41 14 104 19 140 11 79 37 294 50 410 5 47 16 139 24 204 8 66 13 123 10
                128 -3 4 -54 -58 -113 -139 -59 -82 -130 -178 -157 -214 -27 -37 -78 -107
                -113 -155 -36 -49 -103 -141 -150 -204 -46 -63 -107 -146 -136 -185 -28 -38
                -93 -128 -145 -198 l-95 -129 -45 6 c-76 9 -371 45 -452 56 -43 6 -113 15
                -155 20 -76 10 -492 62 -643 80 -211 26 -480 62 -553 75 -45 8 -94 15 -109 15
                -34 0 -34 3 -7 71 41 105 62 159 87 229 63 170 95 257 102 275 5 11 25 65 45
                120 20 55 40 109 45 120 5 11 20 54 35 95 15 41 30 84 35 95 5 11 16 41 26 68
                19 52 14 51 124 36 41 -5 109 -14 150 -19 41 -5 194 -25 340 -45 146 -20 303
                -40 350 -46 47 -6 92 -15 100 -19 9 -5 33 -35 54 -67 44 -64 41 -60 191 -298
                59 -93 114 -179 122 -190 13 -18 14 4 9 195 -4 118 -11 287 -16 375 -5 88 -14
                255 -20 370 -6 116 -15 278 -20 360 -5 83 -14 236 -20 340 -13 244 -39 606
                -48 670 l-7 50 -164 -255 c-90 -140 -171 -262 -181 -271 -10 -8 -44 -21 -76
                -28 -33 -7 -142 -33 -244 -57 -182 -43 -256 -60 -475 -110 -60 -14 -128 -29
                -150 -34 -99 -23 -226 -43 -232 -37 -4 4 -2 29 5 55 6 26 18 76 26 112 8 36
                35 148 60 250 25 102 57 235 71 295 15 61 30 126 35 145 5 19 14 63 21 98 8
                38 19 67 29 72 9 5 385 12 836 16 l819 7 206 -209 c113 -115 237 -243 276
                -284 40 -41 74 -72 78 -69 3 3 1 28 -4 55 -5 27 -14 76 -20 109 -11 59 -46
                237 -61 305 -19 89 -62 290 -71 335 -6 28 -15 68 -20 90 -5 22 -13 60 -18 85
                -5 25 -21 99 -35 165 -14 66 -33 154 -42 195 -8 41 -24 108 -35 147 -10 40
                -19 75 -19 79 0 7 -178 -2 -340 -16 -58 -5 -217 -16 -355 -25 -137 -8 -304
                -20 -370 -25 -66 -5 -196 -14 -290 -20 -93 -6 -226 -15 -295 -20 -69 -5 -233
                -17 -365 -25 -132 -8 -301 -19 -375 -25 -74 -5 -202 -14 -285 -20 -948 -65
                -1086 -75 -1675 -115 -240 -16 -456 -22 -465 -14 -3 4 26 72 65 151 38 80 70
                151 70 157 0 6 -8 10 -17 10 -10 -1 -67 -6 -128 -10z"/>
                <path d="M4975 8405 c-88 -13 -308 -45 -490 -70 -181 -25 -406 -57 -500 -71
                -93 -13 -204 -29 -245 -35 -41 -5 -102 -14 -135 -19 -33 -5 -145 -21 -250 -35
                -104 -14 -217 -30 -250 -35 -33 -5 -145 -21 -250 -35 -104 -14 -217 -30 -250
                -35 -33 -6 -106 -17 -163 -25 -56 -8 -107 -17 -113 -21 -11 -6 83 -46 551
                -236 124 -50 231 -96 238 -101 15 -12 16 -79 2 -247 -5 -69 -16 -240 -25 -380
                -8 -140 -20 -313 -25 -385 -5 -71 -14 -211 -20 -310 -6 -99 -15 -236 -20 -305
                -5 -69 -17 -244 -25 -390 -9 -146 -20 -306 -25 -357 -6 -50 -10 -120 -10 -155
                0 -35 -5 -124 -10 -198 -21 -278 -30 -412 -45 -665 -15 -253 -31 -445 -37
                -450 -4 -3 -339 -231 -470 -320 l-103 -69 45 -8 c76 -13 361 -42 805 -83 94
                -8 217 -20 275 -25 58 -6 152 -15 210 -20 285 -26 663 -61 748 -70 53 -6 143
                -14 201 -20 95 -8 495 -45 766 -70 55 -5 147 -14 205 -19 524 -49 600 -55 600
                -48 0 3 -35 24 -77 47 -149 81 -188 103 -263 145 -41 23 -102 57 -135 75 -103
                56 -258 143 -300 167 -22 13 -58 33 -81 44 -32 17 -43 29 -52 63 -31 109 -66
                240 -89 326 -33 129 -65 252 -102 390 -26 102 -39 148 -71 265 -40 147 -43
                155 -125 470 -13 50 -36 135 -50 190 -45 163 -85 314 -112 415 -13 52 -33 127
                -43 165 -10 39 -31 115 -45 170 -15 55 -31 116 -36 135 -6 19 -14 51 -19 70
                -4 19 -17 69 -28 110 -12 41 -28 100 -36 130 -8 30 -26 98 -41 150 -14 52 -28
                113 -31 135 l-6 40 36 -50 c20 -27 71 -97 113 -155 150 -204 239 -329 526
                -740 160 -228 316 -451 348 -495 33 -44 175 -246 317 -450 339 -485 830 -1185
                918 -1307 38 -54 107 -152 153 -218 l84 -120 116 5 c119 6 324 21 751 55 135
                10 340 26 455 35 116 8 249 20 296 25 47 6 104 10 127 10 79 0 62 18 -68 70
                -30 12 -64 26 -75 30 -11 5 -85 34 -165 66 -143 56 -205 83 -332 138 -20 9
                -41 16 -47 16 -6 0 -11 14 -11 31 0 34 25 224 40 310 5 30 10 69 10 86 0 17 4
                53 10 80 5 26 21 134 35 238 14 105 29 219 35 255 25 183 50 369 71 525 11 86
                24 182 39 285 6 36 17 119 25 185 8 66 20 154 26 195 6 41 15 107 20 145 6 39
                14 99 20 135 5 36 16 117 24 180 15 117 28 212 45 330 5 36 16 119 25 185 16
                125 29 224 45 335 5 36 14 101 20 145 6 44 15 107 20 140 5 33 12 83 15 110 3
                28 11 80 17 117 l11 67 61 25 c34 13 90 37 126 53 36 17 94 43 130 59 134 60
                193 91 182 98 -6 4 -58 11 -114 16 -57 5 -149 14 -205 20 -57 5 -149 15 -205
                20 -57 6 -177 17 -268 26 -290 26 -362 33 -515 48 -82 8 -229 22 -325 31 -96
                8 -218 20 -270 25 -52 5 -147 14 -210 20 -63 6 -155 15 -205 20 -80 9 -285 28
                -478 45 -46 4 -67 2 -62 -5 3 -5 59 -45 123 -88 191 -129 407 -274 408 -276 1
                0 9 -80 18 -176 9 -96 21 -215 26 -265 5 -49 14 -146 20 -215 6 -69 15 -168
                20 -220 5 -52 17 -171 25 -265 14 -164 25 -283 45 -485 23 -233 46 -487 70
                -765 6 -66 13 -140 16 -165 6 -52 30 -356 44 -545 5 -71 12 -149 16 -172 3
                -24 4 -43 0 -43 -6 0 -40 70 -103 210 -16 36 -46 101 -127 274 -25 54 -46 100
                -46 101 0 2 -23 52 -51 112 -28 59 -60 128 -71 153 -11 25 -38 83 -59 128 -22
                46 -39 85 -39 87 0 1 -21 47 -46 101 -55 118 -76 164 -103 225 -11 25 -45 99
                -76 164 -30 64 -55 118 -55 120 0 2 -21 47 -46 102 -25 54 -65 141 -89 193
                -24 52 -61 133 -83 180 -22 47 -50 108 -62 135 -31 70 -67 147 -108 235 -72
                153 -102 220 -102 224 0 4 -54 121 -136 294 -24 51 -44 95 -44 97 0 3 -18 42
                -39 87 -112 239 -131 279 -131 284 0 4 -34 75 -76 160 l-75 154 -42 -1 c-23 0
                -114 -11 -202 -24z"/>
                <path d="M27085 8384 c-97 -5 -414 -38 -730 -75 -44 -5 -156 -18 -250 -29 -93
                -10 -228 -26 -300 -35 -71 -8 -191 -22 -265 -30 -179 -20 -386 -43 -487 -55
                -217 -26 -254 -30 -338 -40 -49 -5 -151 -17 -225 -25 -74 -8 -171 -20 -215
                -25 -44 -6 -138 -17 -210 -25 -239 -27 -237 -27 -218 -39 10 -7 38 -21 63 -31
                25 -10 79 -34 120 -53 41 -18 102 -45 135 -59 33 -14 88 -38 123 -54 35 -16
                65 -29 67 -29 3 0 28 -11 57 -24 29 -13 145 -63 258 -112 113 -48 212 -93 220
                -100 20 -16 16 -55 -40 -464 -6 -41 -15 -106 -20 -145 -12 -97 -37 -284 -50
                -380 -6 -44 -15 -109 -20 -145 -5 -36 -13 -99 -19 -140 -16 -121 -41 -309 -52
                -390 -5 -41 -13 -106 -19 -145 -5 -38 -16 -124 -25 -190 -9 -66 -20 -151 -26
                -190 -5 -38 -13 -104 -19 -145 -5 -41 -14 -109 -20 -150 -6 -41 -15 -106 -20
                -145 -5 -38 -16 -124 -25 -190 -9 -66 -21 -151 -25 -190 -5 -38 -14 -104 -19
                -145 -11 -78 -55 -410 -71 -537 -16 -120 -14 -117 -124 -195 -55 -39 -161
                -114 -234 -166 -73 -52 -130 -98 -125 -102 4 -4 71 -14 148 -24 77 -9 172 -21
                210 -26 39 -5 113 -13 165 -19 128 -14 524 -58 630 -71 47 -6 126 -15 175 -20
                79 -8 206 -22 545 -60 52 -6 129 -15 170 -20 41 -5 143 -17 225 -25 83 -9 184
                -20 225 -25 41 -5 122 -14 180 -20 58 -6 131 -16 163 -21 70 -12 88 -4 55 25
                -74 66 -228 203 -258 229 -19 17 -58 51 -85 76 -28 25 -84 76 -125 112 -100
                88 -274 241 -278 244 -1 1 -9 85 -17 186 -8 101 -19 231 -25 289 -5 58 -14
                168 -20 245 -6 77 -15 183 -20 235 -20 204 -22 280 -8 275 23 -9 252 -45 284
                -45 37 0 23 17 684 -790 278 -338 514 -626 526 -640 60 -68 134 -166 134 -176
                0 -7 -23 -56 -51 -110 -73 -141 -147 -281 -180 -341 -16 -29 -29 -55 -29 -58
                0 -8 61 4 75 15 6 3 37 15 70 25 242 72 360 110 1115 365 377 127 767 259 868
                293 100 33 182 66 182 72 0 7 -53 48 -117 91 -65 44 -220 149 -344 234 -125
                85 -343 234 -485 330 -141 96 -417 285 -612 418 -195 134 -361 246 -368 249
                -27 10 -14 31 24 37 242 42 577 146 790 247 659 310 992 814 992 1501 0 142
                -7 221 -36 393 -17 97 -20 109 -60 230 -146 442 -471 749 -978 924 -178 61
                -325 95 -561 126 -114 16 -670 28 -830 19z m-737 -1276 c258 -126 433 -321
                487 -541 25 -99 17 -288 -15 -376 -48 -134 -126 -239 -211 -286 -50 -28 -61
                -30 -154 -29 -116 1 -230 31 -355 92 l-75 37 3 55 c1 30 7 89 12 130 5 41 17
                138 25 215 14 132 21 197 45 403 6 48 17 150 26 227 8 77 17 145 19 152 4 12
                16 7 193 -79z"/>
                <path d="M10930 2953 c-36 -2 -184 -10 -330 -18 -146 -9 -320 -18 -388 -22
                -67 -3 -125 -9 -127 -13 -3 -4 23 -20 58 -35 177 -80 227 -106 227 -120 0 -8
                -20 -86 -44 -173 -24 -86 -54 -200 -67 -252 -12 -52 -25 -98 -28 -101 -3 -4
                -56 -9 -118 -12 l-112 -5 -77 94 c-42 52 -81 94 -87 94 -6 0 -8 -35 -3 -97 6
                -98 18 -332 32 -625 5 -107 10 -155 18 -152 6 2 35 56 65 120 30 63 57 117 61
                119 13 8 121 22 124 16 1 -3 -3 -60 -10 -126 -25 -221 -28 -420 -10 -509 31
                -145 75 -226 175 -318 150 -139 423 -160 646 -50 60 30 147 88 195 131 19 17
                38 31 42 31 3 0 21 -19 39 -42 18 -24 47 -59 64 -78 16 -19 40 -48 52 -65 12
                -16 24 -28 27 -25 10 10 -26 357 -54 520 -6 36 -14 93 -17 128 -3 34 -9 65
                -13 67 -5 3 -32 -22 -60 -56 -122 -140 -280 -209 -385 -169 -56 22 -80 56
                -105 152 -12 46 -9 270 6 444 l6 71 72 12 c39 7 90 17 113 22 23 5 59 9 80 9
                38 0 42 -3 118 -105 43 -58 82 -105 87 -105 4 0 8 34 8 76 0 41 4 94 10 117
                10 45 19 628 9 621 -3 -2 -47 -64 -98 -139 l-92 -135 -131 0 -130 0 6 58 c5
                54 11 93 35 227 5 33 15 87 20 120 12 68 4 60 225 235 10 8 33 27 50 42 l31
                27 -75 -1 c-41 -1 -104 -3 -140 -5z"/>
                <path d="M21305 2953 c-22 -2 -116 -10 -210 -19 -93 -8 -224 -19 -289 -25
                -122 -9 -156 -15 -156 -27 0 -4 29 -27 64 -50 l64 -44 6 -191 c3 -106 10 -446
                16 -757 6 -311 13 -646 16 -745 l5 -180 -96 -104 c-52 -57 -94 -105 -92 -107
                5 -5 273 12 417 26 58 6 152 15 210 21 58 6 143 17 190 25 284 51 519 217 634
                449 60 122 86 239 86 388 0 175 -31 295 -110 429 -85 143 -207 233 -356 264
                -67 14 -89 15 -149 4 -141 -25 -282 -110 -391 -237 -32 -38 -60 -70 -61 -72
                -15 -23 -5 40 46 274 48 218 82 380 91 425 5 25 12 59 15 75 3 17 8 40 11 53
                3 14 32 40 84 73 44 29 80 53 80 55 0 4 -60 3 -125 -3z m166 -1078 c20 -46 29
                -80 29 -118 0 -140 -82 -271 -191 -306 -81 -26 -201 34 -183 93 15 49 66 146
                114 213 45 65 170 183 193 183 4 0 21 -29 38 -65z"/>
                <path d="M29135 2949 c-82 -4 -231 -12 -330 -18 -99 -7 -237 -14 -307 -18 -71
                -3 -128 -9 -128 -13 0 -4 62 -35 138 -70 75 -34 141 -66 146 -71 8 -7 -21
                -128 -65 -274 -5 -16 -22 -84 -38 -150 l-28 -120 -114 -6 c-131 -7 -115 -16
                -223 119 -32 40 -61 70 -63 68 -3 -3 2 -146 11 -318 9 -172 19 -368 22 -435 3
                -68 10 -123 15 -123 5 0 35 53 67 117 61 124 58 122 145 136 l39 6 -5 -67 c-2
                -37 -10 -123 -17 -192 -18 -187 -9 -376 24 -470 51 -148 164 -272 291 -319 30
                -11 94 -24 142 -29 198 -19 401 52 562 197 18 17 37 31 41 31 3 0 35 -37 71
                -81 35 -45 76 -96 91 -113 l27 -31 -4 50 c-3 28 -7 77 -10 110 -15 171 -30
                283 -71 545 l-6 35 -56 -60 c-114 -121 -199 -174 -292 -182 -156 -14 -210 67
                -210 316 0 98 17 350 24 357 4 5 200 37 246 41 l55 4 82 -111 c70 -96 83 -108
                87 -88 10 49 26 382 29 590 2 178 0 215 -11 206 -7 -6 -45 -59 -84 -117 -112
                -168 -86 -151 -232 -151 l-126 0 0 46 c0 26 4 63 9 83 6 20 17 83 26 141 28
                180 36 208 63 226 25 16 226 176 252 200 16 16 -26 16 -285 3z"/>
                <path d="M6740 2321 c-179 -34 -336 -141 -445 -306 -30 -45 -55 -85 -55 -89 0
                -3 -9 -25 -19 -49 -65 -143 -87 -360 -55 -542 31 -180 104 -319 231 -442 85
                -82 195 -142 308 -169 107 -24 298 -16 385 18 194 75 354 239 448 458 23 53
                33 102 46 212 17 152 -1 347 -43 453 -90 225 -224 363 -423 432 -61 21 -95 26
                -203 29 -71 1 -150 -1 -175 -5z m139 -296 c42 -90 17 -215 -59 -293 -92 -96
                -255 -97 -344 -3 l-29 30 26 44 c43 73 152 167 255 220 51 26 101 47 112 47
                11 0 25 -16 39 -45z"/>
                <path d="M14210 2324 c-103 -20 -226 -76 -304 -138 -114 -91 -224 -275 -271
                -451 -41 -154 -45 -370 -10 -505 47 -180 173 -344 330 -428 138 -74 249 -96
                450 -89 83 3 164 9 180 15 17 5 50 16 75 23 71 21 187 76 270 130 43 27 81 49
                86 49 5 0 28 -41 52 -90 24 -49 49 -93 55 -98 15 -13 7 212 -17 463 -9 94 -16
                171 -16 173 -1 13 -20 -6 -42 -41 -35 -55 -130 -146 -188 -180 -80 -46 -138
                -61 -240 -61 -111 0 -207 26 -308 84 l-63 37 123 -1 c151 -1 228 14 338 67
                141 68 260 202 299 337 28 97 33 151 20 218 -27 150 -52 197 -153 297 -132
                131 -274 184 -501 190 -77 2 -151 1 -165 -1z m113 -395 c0 -82 -28 -146 -85
                -192 -68 -55 -201 -48 -291 16 -35 24 -32 45 20 126 66 105 134 160 242 196
                l66 23 24 -51 c18 -38 24 -67 24 -118z"/>
                <path d="M25030 2320 c-161 -30 -292 -111 -406 -249 -80 -97 -129 -202 -165
                -351 -18 -74 -18 -348 0 -420 73 -300 253 -499 516 -571 68 -18 96 -21 209
                -16 86 3 146 11 174 21 197 74 350 218 444 416 62 131 99 338 79 446 -6 32
                -11 73 -11 93 0 19 -4 48 -9 65 -36 123 -49 157 -73 205 -41 78 -90 141 -159
                205 -125 116 -233 157 -424 162 -71 1 -150 -1 -175 -6z m136 -292 c42 -94 18
                -214 -59 -297 -72 -76 -191 -94 -287 -44 -97 50 -99 85 -12 179 67 72 127 117
                207 157 121 60 126 60 151 5z"/>
                <path d="M2870 2310 c-19 -4 -75 -13 -125 -19 -224 -26 -352 -43 -380 -50 -30
                -7 -29 -8 62 -67 l93 -59 0 -125 c0 -69 -4 -199 -10 -290 -5 -91 -14 -304 -21
                -475 -6 -172 -16 -319 -22 -330 -5 -11 -40 -58 -76 -104 l-65 -84 70 6 c80 7
                308 33 409 46 39 6 95 13 125 17 78 10 84 17 51 67 -47 70 -61 129 -61 252 0
                136 15 186 76 254 37 41 53 51 89 57 25 3 56 3 69 0 40 -10 83 -54 113 -114
                26 -53 28 -65 27 -182 0 -112 -3 -132 -27 -195 -15 -38 -44 -96 -63 -128 -20
                -32 -34 -60 -32 -63 4 -4 399 19 578 34 47 4 85 12 85 17 0 8 -160 95 -199
                108 -5 2 17 57 48 123 82 167 112 250 135 359 7 33 17 76 22 95 21 82 29 273
                15 375 -18 128 -28 164 -65 240 -100 203 -311 291 -526 219 -70 -23 -221 -103
                -257 -136 -8 -7 -43 -40 -77 -73 -51 -49 -62 -55 -56 -35 6 24 9 32 32 90 23
                56 63 166 63 173 0 9 -54 7 -100 -3z"/>
                </g>
                </svg>